<?xml version="1.0" encoding="utf-8"?>
<svg version="1.1" xmlns:xlink="http://www.w3.org/1999/xlink" width="34px" height="37px" xmlns="http://www.w3.org/2000/svg">
  <g transform="matrix(1 0 0 1 -354 -190 )">
    <path d="M 34 7.40000000000001  C 34 5.35575000000001  32.3094444444444 3.69999999999999  30.2222222222222 3.69999999999999  L 22.3172222222222 3.69999999999999  C 21.5427777777778 1.55399999999999  19.465 0  17 0  C 14.535 0  12.4572222222222 1.55399999999999  11.6827777777778 3.69999999999999  L 3.77777777777778 3.69999999999999  C 1.69055555555556 3.69999999999999  0 5.35575000000001  0 7.40000000000001  L 0 33.3  C 0 35.34425  1.69055555555556 37  3.77777777777778 37  L 30.2222222222222 37  C 32.3094444444444 37  34 35.34425  34 33.3  L 34 7.40000000000001  Z M 15.1111111111111 5.55000000000001  C 15.1111111111111 4.52325000000001  15.9611111111111 3.69999999999999  17 3.69999999999999  C 18.0388888888889 3.69999999999999  18.8888888888889 4.52325000000001  18.8888888888889 5.55000000000001  C 18.8888888888889 6.57674999999999  18.0388888888889 7.40000000000001  17 7.40000000000001  C 15.9611111111111 7.40000000000001  15.1111111111111 6.57674999999999  15.1111111111111 5.55000000000001  Z M 11.3333333333333 16.65  C 11.3333333333333 13.58825  13.8738888888889 11.1  17 11.1  C 20.1261111111111 11.1  22.6666666666667 13.58825  22.6666666666667 16.65  C 22.6666666666667 19.721  20.1261111111111 22.2  17 22.2  C 13.8738888888889 22.2  11.3333333333333 19.721  11.3333333333333 16.65  Z M 28.3333333333333 30.71  L 28.3333333333333 33  L 5.66666666666666 33  L 5.66666666666666 30.71  C 5.66666666666666 27.01  13.2222222222222 24.975  17 24.975  C 20.7777777777778 24.975  28.3333333333333 27.01  28.3333333333333 30.71  Z " fill-rule="nonzero" fill="#f59a23" stroke="none" transform="matrix(1 0 0 1 354 190 )" />
  </g>
</svg>